<?xml version="1.0" encoding="utf-8"?>
<!-- Generator: Adobe Illustrator 15.0.0, SVG Export Plug-In  -->
<!DOCTYPE svg PUBLIC "-//W3C//DTD SVG 1.1//EN" "http://www.w3.org/Graphics/SVG/1.1/DTD/svg11.dtd" [
	<!ENTITY ns_flows "http://ns.adobe.com/Flows/1.0/">
]>
<svg version="1.1"
	 xmlns="http://www.w3.org/2000/svg" xmlns:xlink="http://www.w3.org/1999/xlink" xmlns:a="http://ns.adobe.com/AdobeSVGViewerExtensions/3.0/"
	 x="0px" y="0px" width="552px" height="222px" viewBox="-4.092 0 552 222" enable-background="new -4.092 0 552 222"
	 xml:space="preserve">
<defs>
</defs>
<path fill="#FFFFFF" d="M195.333,129.506c-0.446,0-0.893,0-1.488-0.148c-6.399-0.744-11.013-6.548-10.269-12.947l6.994-57.891
	c0.447-3.721-1.785-7.293-5.208-8.483l-47.176-16.816c-6.103-2.232-9.228-8.78-7.144-14.882c2.232-6.102,8.78-9.227,14.882-7.144
	l47.176,16.816c13.989,4.911,22.472,18.603,20.687,33.336l-6.995,57.891C206.197,125.042,201.137,129.506,195.333,129.506z"/>
<path fill="#FFFFFF" d="M104.851,222.222c-5.209,0-10.417-1.34-15.329-4.019l-61.016-33.931
	c-8.781-4.911-14.733-13.691-15.924-23.663L0.23,60.007c-1.786-14.733,6.995-28.723,20.983-33.634L96.665,0.627
	c6.102-2.083,12.799,1.19,14.882,7.292c2.084,6.103-1.19,12.799-7.292,14.883L28.803,48.547c-3.572,1.191-5.804,4.763-5.357,8.632
	l12.352,100.603c0.298,2.53,1.786,4.762,4.018,6.102l61.016,33.931c2.381,1.34,5.358,1.34,7.739,0l66.076-36.163
	c2.232-1.19,3.87-3.571,4.167-6.102c0.744-6.399,6.549-11.013,12.948-10.269c6.398,0.744,11.012,6.548,10.269,12.947
	c-1.191,9.971-7.293,18.9-16.073,23.812l-66.076,36.163C115.268,220.882,110.059,222.222,104.851,222.222z"/>
<path fill="#FFFFFF" d="M157.086,131.441l-37.8-68.309l-0.149-0.149c-2.679-4.613-7.738-7.59-13.096-7.59s-10.417,2.977-13.096,7.59
	l-37.8,68.458c-2.828,5.208-1.042,11.607,4.167,14.436c5.208,2.827,11.608,1.041,14.436-4.167l7.292-13.245h50.004l7.292,13.245
	c1.935,3.571,5.506,5.506,9.376,5.506c1.785,0,3.571-0.446,5.06-1.339C157.979,143.049,159.914,136.501,157.086,131.441z
	 M92.796,107.183l13.245-23.96l13.245,23.96H92.796z"/>
<path fill="#FFFFFF" d="M252.497,113.075c17.46-47.694,32.79-79.42,47.481-97.305c6.813,1.277,21.506,9.794,23.848,13.414
	c-22.144,26.189-38.113,54.934-52.166,93.898c-11.923,33.216-18.311,60.896-18.311,78.78c0,4.897,0,5.11,0.213,6.175
	c-3.833-0.426-7.026-2.129-7.878-4.045c-0.64-1.491-3.833-4.897-5.75-6.175c-2.555-1.703-4.471-9.795-4.471-18.95
	C235.464,166.518,241.639,142.884,252.497,113.075z"/>
<path fill="#FFFFFF" d="M374.289,113.926c-11.498,23.847-19.376,48.972-19.376,63.451c0,7.878,1.704,13.414,5.536,15.543
	c-3.406,2.129-9.581,3.833-13.84,3.833c-7.665,0-11.498-5.11-11.498-15.757c0-7.878,2.769-19.376,8.092-33.216
	c-11.498,25.977-30.235,47.269-43.437,49.398c-10.433-0.426-17.672-11.072-17.672-25.764c0-31.726,30.66-75.161,53.655-76.439
	c5.749,1.491,15.331,11.498,15.97,16.821c-22.783,3.62-50.676,41.307-50.676,67.496c0,2.981,1.065,4.472,2.981,5.11
	c8.304-1.703,18.524-13.627,33.854-39.178c5.962-10.007,14.479-25.977,20.653-38.751
	C364.495,106.474,374.502,111.158,374.289,113.926z"/>
<path fill="#FFFFFF" d="M391.749,137.773c1.277-5.536,7.452-27.68,20.228-34.067c4.685,1.064,14.266,5.749,19.802,14.053
	c-12.988,14.479-16.82,29.596-24.061,48.333c-2.98,7.878-6.174,17.034-6.387,23.209c0,5.109,0,7.026-1.278,7.026
	c-2.129,0-15.543-5.536-15.543-18.099C384.51,173.331,386.213,163.324,391.749,137.773z M425.816,81.988
	c-1.49-1.491-2.555-4.685-2.555-7.026c0-4.897,2.98-18.737,6.601-27.893c6.601,0,21.505,8.517,25.764,14.905
	c-6.388,5.961-21.932,24.912-24.061,29.596c-3.407-0.639-6.388-3.407-6.388-5.749C425.178,84.969,425.391,83.691,425.816,81.988z"/>
<path fill="#FFFFFF" d="M486.712,109.668c-6.388,15.543-28.745,45.778-30.448,58.766c8.943-9.581,23.422-27.467,28.318-32.576
	c10.859-11.498,30.874-32.577,44.714-32.577c7.239,0,12.35,6.175,15.117,11.498c0,0.639-2.342,0.852-6.175,5.323
	c-7.665,10.007-22.144,38.113-22.144,55.573c0,7.026,1.916,8.304,5.323,8.304c2.98,0,7.026-2.13,8.942-2.13
	c1.064,0.64,1.916,2.981,1.916,4.259c-4.258,3.833-13.414,8.729-18.311,8.729c-16.396,0-20.228-10.007-20.228-22.569
	c0-7.026,1.916-15.756,11.71-38.326c-0.639,0-8.942,4.046-17.246,12.137c-13.201,12.775-23.209,24.486-34.28,39.816
	c-6.175,8.729-10.859,15.33-14.266,17.247c-5.962-3.407-8.517-10.221-9.795-16.608c0-10.646,6.388-34.493,15.97-56.424
	c10.858-24.912,20.866-39.816,23.208-40.881C476.491,91.569,483.73,100.299,486.712,109.668z"/>
</svg>
